<mxfile host="app.diagrams.net" agent="Mozilla/5.0 (Windows NT 10.0; Win64; x64) AppleWebKit/537.36 (KHTML, like Gecko) Chrome/129.0.0.0 Safari/537.36 Avast/129.0.0.0" version="24.8.4">
  <diagram name="Page-1" id="0POdcQkDjJuLu0Xd19ot">
    <mxGraphModel dx="1214" dy="626" grid="1" gridSize="10" guides="1" tooltips="1" connect="1" arrows="1" fold="1" page="1" pageScale="1" pageWidth="850" pageHeight="1100" math="0" shadow="0">
      <root>
        <mxCell id="0" />
        <mxCell id="1" parent="0" />
        <mxCell id="jqGfhg1RxOjhNtgh079G-30" style="edgeStyle=orthogonalEdgeStyle;rounded=0;orthogonalLoop=1;jettySize=auto;html=1;exitX=0.5;exitY=1;exitDx=0;exitDy=0;entryX=0.5;entryY=0;entryDx=0;entryDy=0;" parent="1" source="jqGfhg1RxOjhNtgh079G-1" target="jqGfhg1RxOjhNtgh079G-2" edge="1">
          <mxGeometry relative="1" as="geometry" />
        </mxCell>
        <mxCell id="jqGfhg1RxOjhNtgh079G-1" value="Start" style="ellipse;whiteSpace=wrap;html=1;" parent="1" vertex="1">
          <mxGeometry x="375" y="50" width="120" height="80" as="geometry" />
        </mxCell>
        <mxCell id="jqGfhg1RxOjhNtgh079G-31" style="edgeStyle=orthogonalEdgeStyle;rounded=0;orthogonalLoop=1;jettySize=auto;html=1;exitX=0.5;exitY=1;exitDx=0;exitDy=0;entryX=0.5;entryY=0;entryDx=0;entryDy=0;" parent="1" source="jqGfhg1RxOjhNtgh079G-2" target="jqGfhg1RxOjhNtgh079G-3" edge="1">
          <mxGeometry relative="1" as="geometry" />
        </mxCell>
        <mxCell id="dURvWSEMzT_Up1eG5Lx8-8" value="" style="edgeStyle=orthogonalEdgeStyle;rounded=0;orthogonalLoop=1;jettySize=auto;html=1;" edge="1" parent="1" source="jqGfhg1RxOjhNtgh079G-2" target="jqGfhg1RxOjhNtgh079G-1">
          <mxGeometry relative="1" as="geometry" />
        </mxCell>
        <mxCell id="jqGfhg1RxOjhNtgh079G-2" value="u arrived at parking entrance" style="rounded=1;whiteSpace=wrap;html=1;" parent="1" vertex="1">
          <mxGeometry x="375" y="190" width="120" height="60" as="geometry" />
        </mxCell>
        <mxCell id="jqGfhg1RxOjhNtgh079G-32" style="edgeStyle=orthogonalEdgeStyle;rounded=0;orthogonalLoop=1;jettySize=auto;html=1;exitX=0.5;exitY=1;exitDx=0;exitDy=0;entryX=0.5;entryY=0;entryDx=0;entryDy=0;" parent="1" source="jqGfhg1RxOjhNtgh079G-3" target="jqGfhg1RxOjhNtgh079G-6" edge="1">
          <mxGeometry relative="1" as="geometry" />
        </mxCell>
        <mxCell id="dURvWSEMzT_Up1eG5Lx8-1" style="edgeStyle=orthogonalEdgeStyle;rounded=0;orthogonalLoop=1;jettySize=auto;html=1;exitX=1;exitY=0.5;exitDx=0;exitDy=0;entryX=1;entryY=0.5;entryDx=0;entryDy=0;" edge="1" parent="1" source="jqGfhg1RxOjhNtgh079G-3" target="jqGfhg1RxOjhNtgh079G-102">
          <mxGeometry relative="1" as="geometry">
            <Array as="points">
              <mxPoint x="2520" y="385" />
              <mxPoint x="2520" y="3530" />
            </Array>
          </mxGeometry>
        </mxCell>
        <mxCell id="jqGfhg1RxOjhNtgh079G-3" value="do u feel like training" style="rhombus;whiteSpace=wrap;html=1;" parent="1" vertex="1">
          <mxGeometry x="360" y="310" width="150" height="150" as="geometry" />
        </mxCell>
        <mxCell id="jqGfhg1RxOjhNtgh079G-34" style="edgeStyle=orthogonalEdgeStyle;rounded=0;orthogonalLoop=1;jettySize=auto;html=1;exitX=1;exitY=0.5;exitDx=0;exitDy=0;entryX=0;entryY=0.5;entryDx=0;entryDy=0;" parent="1" source="jqGfhg1RxOjhNtgh079G-5" target="jqGfhg1RxOjhNtgh079G-8" edge="1">
          <mxGeometry relative="1" as="geometry" />
        </mxCell>
        <mxCell id="jqGfhg1RxOjhNtgh079G-36" style="edgeStyle=orthogonalEdgeStyle;rounded=0;orthogonalLoop=1;jettySize=auto;html=1;exitX=0.5;exitY=1;exitDx=0;exitDy=0;" parent="1" source="jqGfhg1RxOjhNtgh079G-5" target="jqGfhg1RxOjhNtgh079G-7" edge="1">
          <mxGeometry relative="1" as="geometry" />
        </mxCell>
        <mxCell id="jqGfhg1RxOjhNtgh079G-5" value="u arrived by foot" style="rhombus;whiteSpace=wrap;html=1;" parent="1" vertex="1">
          <mxGeometry x="355" y="720" width="160" height="160" as="geometry" />
        </mxCell>
        <mxCell id="jqGfhg1RxOjhNtgh079G-33" style="edgeStyle=orthogonalEdgeStyle;rounded=0;orthogonalLoop=1;jettySize=auto;html=1;exitX=0.5;exitY=1;exitDx=0;exitDy=0;entryX=0.5;entryY=0;entryDx=0;entryDy=0;" parent="1" source="jqGfhg1RxOjhNtgh079G-6" target="jqGfhg1RxOjhNtgh079G-5" edge="1">
          <mxGeometry relative="1" as="geometry" />
        </mxCell>
        <mxCell id="dURvWSEMzT_Up1eG5Lx8-2" style="edgeStyle=orthogonalEdgeStyle;rounded=0;orthogonalLoop=1;jettySize=auto;html=1;exitX=1;exitY=0.5;exitDx=0;exitDy=0;entryX=1;entryY=0.5;entryDx=0;entryDy=0;" edge="1" parent="1" source="jqGfhg1RxOjhNtgh079G-6" target="jqGfhg1RxOjhNtgh079G-102">
          <mxGeometry relative="1" as="geometry">
            <Array as="points">
              <mxPoint x="2480" y="590" />
              <mxPoint x="2480" y="3530" />
            </Array>
          </mxGeometry>
        </mxCell>
        <mxCell id="jqGfhg1RxOjhNtgh079G-6" value="gym open" style="rhombus;whiteSpace=wrap;html=1;" parent="1" vertex="1">
          <mxGeometry x="365" y="520" width="140" height="140" as="geometry" />
        </mxCell>
        <mxCell id="jqGfhg1RxOjhNtgh079G-37" style="edgeStyle=orthogonalEdgeStyle;rounded=0;orthogonalLoop=1;jettySize=auto;html=1;exitX=0.5;exitY=1;exitDx=0;exitDy=0;entryX=0.5;entryY=0;entryDx=0;entryDy=0;" parent="1" source="jqGfhg1RxOjhNtgh079G-7" target="jqGfhg1RxOjhNtgh079G-16" edge="1">
          <mxGeometry relative="1" as="geometry" />
        </mxCell>
        <mxCell id="jqGfhg1RxOjhNtgh079G-7" value="enter gym" style="rounded=1;whiteSpace=wrap;html=1;" parent="1" vertex="1">
          <mxGeometry x="375" y="1370" width="120" height="60" as="geometry" />
        </mxCell>
        <mxCell id="jqGfhg1RxOjhNtgh079G-35" style="edgeStyle=orthogonalEdgeStyle;rounded=0;orthogonalLoop=1;jettySize=auto;html=1;exitX=1;exitY=0.5;exitDx=0;exitDy=0;entryX=0;entryY=0.5;entryDx=0;entryDy=0;" parent="1" source="jqGfhg1RxOjhNtgh079G-8" edge="1">
          <mxGeometry relative="1" as="geometry">
            <mxPoint x="1210" y="800" as="targetPoint" />
          </mxGeometry>
        </mxCell>
        <mxCell id="jqGfhg1RxOjhNtgh079G-38" style="edgeStyle=orthogonalEdgeStyle;rounded=0;orthogonalLoop=1;jettySize=auto;html=1;exitX=0.5;exitY=1;exitDx=0;exitDy=0;entryX=0.5;entryY=0;entryDx=0;entryDy=0;" parent="1" source="jqGfhg1RxOjhNtgh079G-8" target="jqGfhg1RxOjhNtgh079G-10" edge="1">
          <mxGeometry relative="1" as="geometry" />
        </mxCell>
        <mxCell id="jqGfhg1RxOjhNtgh079G-8" value="u arrived by bicycle" style="rhombus;whiteSpace=wrap;html=1;" parent="1" vertex="1">
          <mxGeometry x="610" y="720" width="160" height="160" as="geometry" />
        </mxCell>
        <mxCell id="jqGfhg1RxOjhNtgh079G-41" style="edgeStyle=orthogonalEdgeStyle;rounded=0;orthogonalLoop=1;jettySize=auto;html=1;exitX=0.5;exitY=1;exitDx=0;exitDy=0;entryX=0.5;entryY=0;entryDx=0;entryDy=0;" parent="1" target="jqGfhg1RxOjhNtgh079G-11" edge="1">
          <mxGeometry relative="1" as="geometry">
            <mxPoint x="1290" y="880" as="sourcePoint" />
          </mxGeometry>
        </mxCell>
        <mxCell id="jqGfhg1RxOjhNtgh079G-127" style="edgeStyle=orthogonalEdgeStyle;rounded=0;orthogonalLoop=1;jettySize=auto;html=1;exitX=0.5;exitY=1;exitDx=0;exitDy=0;entryX=0.5;entryY=0;entryDx=0;entryDy=0;" parent="1" source="jqGfhg1RxOjhNtgh079G-10" target="jqGfhg1RxOjhNtgh079G-14" edge="1">
          <mxGeometry relative="1" as="geometry" />
        </mxCell>
        <mxCell id="jqGfhg1RxOjhNtgh079G-129" style="edgeStyle=orthogonalEdgeStyle;rounded=0;orthogonalLoop=1;jettySize=auto;html=1;exitX=1;exitY=0.5;exitDx=0;exitDy=0;entryX=0;entryY=0.5;entryDx=0;entryDy=0;" parent="1" source="jqGfhg1RxOjhNtgh079G-10" target="jqGfhg1RxOjhNtgh079G-124" edge="1">
          <mxGeometry relative="1" as="geometry" />
        </mxCell>
        <mxCell id="jqGfhg1RxOjhNtgh079G-10" value="does gym have&lt;div&gt;&lt;span style=&quot;background-color: initial;&quot;&gt;&amp;nbsp;bicycle parking&lt;/span&gt;&lt;/div&gt;" style="rhombus;whiteSpace=wrap;html=1;" parent="1" vertex="1">
          <mxGeometry x="620" y="940" width="140" height="140" as="geometry" />
        </mxCell>
        <mxCell id="jqGfhg1RxOjhNtgh079G-128" style="edgeStyle=orthogonalEdgeStyle;rounded=0;orthogonalLoop=1;jettySize=auto;html=1;exitX=0.5;exitY=1;exitDx=0;exitDy=0;entryX=0.5;entryY=0;entryDx=0;entryDy=0;" parent="1" source="jqGfhg1RxOjhNtgh079G-11" target="jqGfhg1RxOjhNtgh079G-15" edge="1">
          <mxGeometry relative="1" as="geometry" />
        </mxCell>
        <mxCell id="jqGfhg1RxOjhNtgh079G-130" style="edgeStyle=orthogonalEdgeStyle;rounded=0;orthogonalLoop=1;jettySize=auto;html=1;exitX=0;exitY=0.5;exitDx=0;exitDy=0;entryX=1;entryY=0.5;entryDx=0;entryDy=0;" parent="1" source="jqGfhg1RxOjhNtgh079G-11" target="jqGfhg1RxOjhNtgh079G-124" edge="1">
          <mxGeometry relative="1" as="geometry" />
        </mxCell>
        <mxCell id="jqGfhg1RxOjhNtgh079G-11" value="does gym have&lt;div&gt;&lt;span style=&quot;background-color: initial;&quot;&gt;&amp;nbsp;car parking&lt;/span&gt;&lt;/div&gt;" style="rhombus;whiteSpace=wrap;html=1;" parent="1" vertex="1">
          <mxGeometry x="1220" y="940" width="140" height="140" as="geometry" />
        </mxCell>
        <mxCell id="jqGfhg1RxOjhNtgh079G-45" style="edgeStyle=orthogonalEdgeStyle;rounded=0;orthogonalLoop=1;jettySize=auto;html=1;exitX=0.5;exitY=1;exitDx=0;exitDy=0;" parent="1" source="jqGfhg1RxOjhNtgh079G-14" edge="1">
          <mxGeometry relative="1" as="geometry">
            <mxPoint x="690" y="1400" as="targetPoint" />
          </mxGeometry>
        </mxCell>
        <mxCell id="jqGfhg1RxOjhNtgh079G-14" value="park bicycle" style="rounded=1;whiteSpace=wrap;html=1;" parent="1" vertex="1">
          <mxGeometry x="630" y="1210" width="120" height="60" as="geometry" />
        </mxCell>
        <mxCell id="jqGfhg1RxOjhNtgh079G-44" style="edgeStyle=orthogonalEdgeStyle;rounded=0;orthogonalLoop=1;jettySize=auto;html=1;exitX=0.5;exitY=1;exitDx=0;exitDy=0;entryX=1;entryY=0.5;entryDx=0;entryDy=0;" parent="1" source="jqGfhg1RxOjhNtgh079G-15" target="jqGfhg1RxOjhNtgh079G-7" edge="1">
          <mxGeometry relative="1" as="geometry" />
        </mxCell>
        <mxCell id="jqGfhg1RxOjhNtgh079G-15" value="park car" style="rounded=1;whiteSpace=wrap;html=1;" parent="1" vertex="1">
          <mxGeometry x="1230" y="1210" width="120" height="60" as="geometry" />
        </mxCell>
        <mxCell id="jqGfhg1RxOjhNtgh079G-47" style="edgeStyle=orthogonalEdgeStyle;rounded=0;orthogonalLoop=1;jettySize=auto;html=1;exitX=0.5;exitY=1;exitDx=0;exitDy=0;entryX=0.5;entryY=0;entryDx=0;entryDy=0;" parent="1" source="jqGfhg1RxOjhNtgh079G-16" target="jqGfhg1RxOjhNtgh079G-17" edge="1">
          <mxGeometry relative="1" as="geometry" />
        </mxCell>
        <mxCell id="dURvWSEMzT_Up1eG5Lx8-9" style="edgeStyle=orthogonalEdgeStyle;rounded=0;orthogonalLoop=1;jettySize=auto;html=1;exitX=0;exitY=0.5;exitDx=0;exitDy=0;entryX=0.5;entryY=0;entryDx=0;entryDy=0;" edge="1" parent="1" source="jqGfhg1RxOjhNtgh079G-16" target="jqGfhg1RxOjhNtgh079G-25">
          <mxGeometry relative="1" as="geometry" />
        </mxCell>
        <mxCell id="jqGfhg1RxOjhNtgh079G-16" value="u are member" style="rhombus;whiteSpace=wrap;html=1;" parent="1" vertex="1">
          <mxGeometry x="325" y="1490" width="220" height="110" as="geometry" />
        </mxCell>
        <mxCell id="dURvWSEMzT_Up1eG5Lx8-10" style="edgeStyle=orthogonalEdgeStyle;rounded=0;orthogonalLoop=1;jettySize=auto;html=1;exitX=0.5;exitY=1;exitDx=0;exitDy=0;entryX=0.5;entryY=0;entryDx=0;entryDy=0;" edge="1" parent="1" source="jqGfhg1RxOjhNtgh079G-17" target="jqGfhg1RxOjhNtgh079G-26">
          <mxGeometry relative="1" as="geometry" />
        </mxCell>
        <mxCell id="jqGfhg1RxOjhNtgh079G-17" value="go change clothes" style="rounded=1;whiteSpace=wrap;html=1;" parent="1" vertex="1">
          <mxGeometry x="375" y="1720" width="120" height="60" as="geometry" />
        </mxCell>
        <mxCell id="dURvWSEMzT_Up1eG5Lx8-24" style="edgeStyle=orthogonalEdgeStyle;rounded=0;orthogonalLoop=1;jettySize=auto;html=1;exitX=0.5;exitY=1;exitDx=0;exitDy=0;entryX=0.5;entryY=0;entryDx=0;entryDy=0;" edge="1" parent="1" source="jqGfhg1RxOjhNtgh079G-19" target="jqGfhg1RxOjhNtgh079G-22">
          <mxGeometry relative="1" as="geometry" />
        </mxCell>
        <mxCell id="jqGfhg1RxOjhNtgh079G-19" value="go to training area" style="rounded=1;whiteSpace=wrap;html=1;" parent="1" vertex="1">
          <mxGeometry x="375" y="2425" width="120" height="60" as="geometry" />
        </mxCell>
        <mxCell id="dURvWSEMzT_Up1eG5Lx8-25" style="edgeStyle=orthogonalEdgeStyle;rounded=0;orthogonalLoop=1;jettySize=auto;html=1;exitX=1;exitY=0.5;exitDx=0;exitDy=0;entryX=0.5;entryY=0;entryDx=0;entryDy=0;" edge="1" parent="1" source="jqGfhg1RxOjhNtgh079G-22" target="jqGfhg1RxOjhNtgh079G-24">
          <mxGeometry relative="1" as="geometry" />
        </mxCell>
        <mxCell id="dURvWSEMzT_Up1eG5Lx8-26" style="edgeStyle=orthogonalEdgeStyle;rounded=0;orthogonalLoop=1;jettySize=auto;html=1;exitX=0.5;exitY=1;exitDx=0;exitDy=0;entryX=0;entryY=0.5;entryDx=0;entryDy=0;" edge="1" parent="1" source="jqGfhg1RxOjhNtgh079G-22" target="jqGfhg1RxOjhNtgh079G-62">
          <mxGeometry relative="1" as="geometry" />
        </mxCell>
        <mxCell id="jqGfhg1RxOjhNtgh079G-22" value="u know where&amp;nbsp;&lt;div&gt;everything is&lt;/div&gt;" style="rhombus;whiteSpace=wrap;html=1;" parent="1" vertex="1">
          <mxGeometry x="345" y="2545" width="180" height="90" as="geometry" />
        </mxCell>
        <mxCell id="dURvWSEMzT_Up1eG5Lx8-40" style="edgeStyle=orthogonalEdgeStyle;rounded=0;orthogonalLoop=1;jettySize=auto;html=1;exitX=0.5;exitY=1;exitDx=0;exitDy=0;entryX=0;entryY=0.5;entryDx=0;entryDy=0;" edge="1" parent="1" source="jqGfhg1RxOjhNtgh079G-23" target="jqGfhg1RxOjhNtgh079G-99">
          <mxGeometry relative="1" as="geometry">
            <Array as="points">
              <mxPoint x="658" y="3520" />
              <mxPoint x="2070" y="3520" />
              <mxPoint x="2070" y="3130" />
            </Array>
          </mxGeometry>
        </mxCell>
        <mxCell id="jqGfhg1RxOjhNtgh079G-23" value="do strenght training" style="rounded=1;whiteSpace=wrap;html=1;" parent="1" vertex="1">
          <mxGeometry x="557.5" y="3020" width="200" height="80" as="geometry" />
        </mxCell>
        <mxCell id="dURvWSEMzT_Up1eG5Lx8-27" style="edgeStyle=orthogonalEdgeStyle;rounded=0;orthogonalLoop=1;jettySize=auto;html=1;exitX=0.5;exitY=1;exitDx=0;exitDy=0;entryX=0.5;entryY=0;entryDx=0;entryDy=0;" edge="1" parent="1" source="jqGfhg1RxOjhNtgh079G-24" target="jqGfhg1RxOjhNtgh079G-62">
          <mxGeometry relative="1" as="geometry" />
        </mxCell>
        <mxCell id="jqGfhg1RxOjhNtgh079G-24" value="ask for help" style="rounded=1;whiteSpace=wrap;html=1;" parent="1" vertex="1">
          <mxGeometry x="597.5" y="2645" width="120" height="60" as="geometry" />
        </mxCell>
        <mxCell id="jqGfhg1RxOjhNtgh079G-57" style="edgeStyle=orthogonalEdgeStyle;rounded=0;orthogonalLoop=1;jettySize=auto;html=1;exitX=0.5;exitY=1;exitDx=0;exitDy=0;entryX=0;entryY=0.5;entryDx=0;entryDy=0;" parent="1" source="jqGfhg1RxOjhNtgh079G-25" target="jqGfhg1RxOjhNtgh079G-17" edge="1">
          <mxGeometry relative="1" as="geometry">
            <mxPoint x="360" y="1920" as="targetPoint" />
            <Array as="points">
              <mxPoint x="195" y="1750" />
            </Array>
          </mxGeometry>
        </mxCell>
        <mxCell id="jqGfhg1RxOjhNtgh079G-25" value="sign up" style="rounded=1;whiteSpace=wrap;html=1;" parent="1" vertex="1">
          <mxGeometry x="135" y="1610" width="120" height="60" as="geometry" />
        </mxCell>
        <mxCell id="dURvWSEMzT_Up1eG5Lx8-12" style="edgeStyle=orthogonalEdgeStyle;rounded=0;orthogonalLoop=1;jettySize=auto;html=1;exitX=0.5;exitY=1;exitDx=0;exitDy=0;entryX=0.5;entryY=0;entryDx=0;entryDy=0;" edge="1" parent="1" source="jqGfhg1RxOjhNtgh079G-26" target="dURvWSEMzT_Up1eG5Lx8-11">
          <mxGeometry relative="1" as="geometry" />
        </mxCell>
        <mxCell id="dURvWSEMzT_Up1eG5Lx8-13" style="edgeStyle=orthogonalEdgeStyle;rounded=0;orthogonalLoop=1;jettySize=auto;html=1;exitX=0;exitY=0.5;exitDx=0;exitDy=0;" edge="1" parent="1" source="jqGfhg1RxOjhNtgh079G-26" target="jqGfhg1RxOjhNtgh079G-28">
          <mxGeometry relative="1" as="geometry">
            <Array as="points">
              <mxPoint x="320" y="1920" />
              <mxPoint x="320" y="2130" />
              <mxPoint x="435" y="2130" />
            </Array>
          </mxGeometry>
        </mxCell>
        <mxCell id="jqGfhg1RxOjhNtgh079G-26" value="training alone" style="rhombus;whiteSpace=wrap;html=1;" parent="1" vertex="1">
          <mxGeometry x="340" y="1820" width="190" height="200" as="geometry" />
        </mxCell>
        <mxCell id="dURvWSEMzT_Up1eG5Lx8-19" style="edgeStyle=orthogonalEdgeStyle;rounded=0;orthogonalLoop=1;jettySize=auto;html=1;exitX=0.5;exitY=1;exitDx=0;exitDy=0;entryX=0.5;entryY=0;entryDx=0;entryDy=0;" edge="1" parent="1" source="jqGfhg1RxOjhNtgh079G-28" target="dURvWSEMzT_Up1eG5Lx8-18">
          <mxGeometry relative="1" as="geometry" />
        </mxCell>
        <mxCell id="dURvWSEMzT_Up1eG5Lx8-20" style="edgeStyle=orthogonalEdgeStyle;rounded=0;orthogonalLoop=1;jettySize=auto;html=1;exitX=0;exitY=0.5;exitDx=0;exitDy=0;" edge="1" parent="1" source="jqGfhg1RxOjhNtgh079G-28" target="dURvWSEMzT_Up1eG5Lx8-17">
          <mxGeometry relative="1" as="geometry" />
        </mxCell>
        <mxCell id="jqGfhg1RxOjhNtgh079G-28" value="have a personal trainer" style="rhombus;whiteSpace=wrap;html=1;" parent="1" vertex="1">
          <mxGeometry x="350" y="2150" width="170" height="150" as="geometry" />
        </mxCell>
        <mxCell id="dURvWSEMzT_Up1eG5Lx8-28" style="edgeStyle=orthogonalEdgeStyle;rounded=0;orthogonalLoop=1;jettySize=auto;html=1;exitX=0.5;exitY=1;exitDx=0;exitDy=0;entryX=0.5;entryY=0;entryDx=0;entryDy=0;" edge="1" parent="1" source="jqGfhg1RxOjhNtgh079G-62" target="jqGfhg1RxOjhNtgh079G-23">
          <mxGeometry relative="1" as="geometry" />
        </mxCell>
        <mxCell id="dURvWSEMzT_Up1eG5Lx8-29" style="edgeStyle=orthogonalEdgeStyle;rounded=0;orthogonalLoop=1;jettySize=auto;html=1;exitX=1;exitY=0.5;exitDx=0;exitDy=0;entryX=0;entryY=0.5;entryDx=0;entryDy=0;" edge="1" parent="1" source="jqGfhg1RxOjhNtgh079G-62" target="jqGfhg1RxOjhNtgh079G-64">
          <mxGeometry relative="1" as="geometry" />
        </mxCell>
        <mxCell id="jqGfhg1RxOjhNtgh079G-62" value="u want to lift&amp;nbsp;weights" style="rhombus;whiteSpace=wrap;html=1;" parent="1" vertex="1">
          <mxGeometry x="565" y="2820" width="185" height="100" as="geometry" />
        </mxCell>
        <mxCell id="jqGfhg1RxOjhNtgh079G-77" style="edgeStyle=orthogonalEdgeStyle;rounded=0;orthogonalLoop=1;jettySize=auto;html=1;exitX=0.5;exitY=1;exitDx=0;exitDy=0;entryX=0.5;entryY=0;entryDx=0;entryDy=0;" parent="1" source="jqGfhg1RxOjhNtgh079G-64" target="jqGfhg1RxOjhNtgh079G-67" edge="1">
          <mxGeometry relative="1" as="geometry" />
        </mxCell>
        <mxCell id="dURvWSEMzT_Up1eG5Lx8-37" style="edgeStyle=orthogonalEdgeStyle;rounded=0;orthogonalLoop=1;jettySize=auto;html=1;exitX=1;exitY=0.5;exitDx=0;exitDy=0;entryX=0;entryY=0.5;entryDx=0;entryDy=0;" edge="1" parent="1" source="jqGfhg1RxOjhNtgh079G-64" target="jqGfhg1RxOjhNtgh079G-86">
          <mxGeometry relative="1" as="geometry" />
        </mxCell>
        <mxCell id="jqGfhg1RxOjhNtgh079G-64" value="u want to do cardio" style="rhombus;whiteSpace=wrap;html=1;" parent="1" vertex="1">
          <mxGeometry x="922.5" y="2820" width="185" height="100" as="geometry" />
        </mxCell>
        <mxCell id="jqGfhg1RxOjhNtgh079G-78" style="edgeStyle=orthogonalEdgeStyle;rounded=0;orthogonalLoop=1;jettySize=auto;html=1;exitX=0.5;exitY=1;exitDx=0;exitDy=0;entryX=0.5;entryY=0;entryDx=0;entryDy=0;" parent="1" source="jqGfhg1RxOjhNtgh079G-67" target="jqGfhg1RxOjhNtgh079G-68" edge="1">
          <mxGeometry relative="1" as="geometry" />
        </mxCell>
        <mxCell id="dURvWSEMzT_Up1eG5Lx8-32" style="edgeStyle=orthogonalEdgeStyle;rounded=0;orthogonalLoop=1;jettySize=auto;html=1;exitX=1;exitY=0.5;exitDx=0;exitDy=0;" edge="1" parent="1" source="jqGfhg1RxOjhNtgh079G-67" target="jqGfhg1RxOjhNtgh079G-71">
          <mxGeometry relative="1" as="geometry" />
        </mxCell>
        <mxCell id="jqGfhg1RxOjhNtgh079G-67" value="wanna run" style="rhombus;whiteSpace=wrap;html=1;" parent="1" vertex="1">
          <mxGeometry x="915" y="3030" width="200" height="90" as="geometry" />
        </mxCell>
        <mxCell id="jqGfhg1RxOjhNtgh079G-79" style="edgeStyle=orthogonalEdgeStyle;rounded=0;orthogonalLoop=1;jettySize=auto;html=1;exitX=0.5;exitY=1;exitDx=0;exitDy=0;entryX=0.5;entryY=0;entryDx=0;entryDy=0;" parent="1" source="jqGfhg1RxOjhNtgh079G-68" target="jqGfhg1RxOjhNtgh079G-69" edge="1">
          <mxGeometry relative="1" as="geometry" />
        </mxCell>
        <mxCell id="dURvWSEMzT_Up1eG5Lx8-31" style="edgeStyle=orthogonalEdgeStyle;rounded=0;orthogonalLoop=1;jettySize=auto;html=1;exitX=1;exitY=0.5;exitDx=0;exitDy=0;entryX=0;entryY=0.5;entryDx=0;entryDy=0;" edge="1" parent="1" source="jqGfhg1RxOjhNtgh079G-68" target="jqGfhg1RxOjhNtgh079G-72">
          <mxGeometry relative="1" as="geometry" />
        </mxCell>
        <mxCell id="jqGfhg1RxOjhNtgh079G-68" value="wanna do bicycle" style="rhombus;whiteSpace=wrap;html=1;" parent="1" vertex="1">
          <mxGeometry x="915" y="3170" width="200" height="90" as="geometry" />
        </mxCell>
        <mxCell id="dURvWSEMzT_Up1eG5Lx8-30" style="edgeStyle=orthogonalEdgeStyle;rounded=0;orthogonalLoop=1;jettySize=auto;html=1;exitX=1;exitY=0.5;exitDx=0;exitDy=0;" edge="1" parent="1" source="jqGfhg1RxOjhNtgh079G-69" target="jqGfhg1RxOjhNtgh079G-73">
          <mxGeometry relative="1" as="geometry" />
        </mxCell>
        <mxCell id="dURvWSEMzT_Up1eG5Lx8-33" style="edgeStyle=orthogonalEdgeStyle;rounded=0;orthogonalLoop=1;jettySize=auto;html=1;exitX=0.5;exitY=1;exitDx=0;exitDy=0;entryX=0;entryY=0.5;entryDx=0;entryDy=0;" edge="1" parent="1" source="jqGfhg1RxOjhNtgh079G-69" target="jqGfhg1RxOjhNtgh079G-86">
          <mxGeometry relative="1" as="geometry">
            <Array as="points">
              <mxPoint x="1015" y="3430" />
              <mxPoint x="1420" y="3430" />
              <mxPoint x="1420" y="2870" />
            </Array>
          </mxGeometry>
        </mxCell>
        <mxCell id="jqGfhg1RxOjhNtgh079G-69" value="wanna swim" style="rhombus;whiteSpace=wrap;html=1;" parent="1" vertex="1">
          <mxGeometry x="915" y="3320" width="200" height="90" as="geometry" />
        </mxCell>
        <mxCell id="dURvWSEMzT_Up1eG5Lx8-34" style="edgeStyle=orthogonalEdgeStyle;rounded=0;orthogonalLoop=1;jettySize=auto;html=1;exitX=1;exitY=0.5;exitDx=0;exitDy=0;" edge="1" parent="1" source="jqGfhg1RxOjhNtgh079G-71">
          <mxGeometry relative="1" as="geometry">
            <mxPoint x="1420" y="3074.4285714285716" as="targetPoint" />
          </mxGeometry>
        </mxCell>
        <mxCell id="jqGfhg1RxOjhNtgh079G-71" value="do treadmill" style="rounded=1;whiteSpace=wrap;html=1;" parent="1" vertex="1">
          <mxGeometry x="1230" y="3045" width="120" height="60" as="geometry" />
        </mxCell>
        <mxCell id="dURvWSEMzT_Up1eG5Lx8-35" style="edgeStyle=orthogonalEdgeStyle;rounded=0;orthogonalLoop=1;jettySize=auto;html=1;exitX=1;exitY=0.5;exitDx=0;exitDy=0;" edge="1" parent="1" source="jqGfhg1RxOjhNtgh079G-72">
          <mxGeometry relative="1" as="geometry">
            <mxPoint x="1420" y="3214.4285714285716" as="targetPoint" />
          </mxGeometry>
        </mxCell>
        <mxCell id="jqGfhg1RxOjhNtgh079G-72" value="go to bike" style="rounded=1;whiteSpace=wrap;html=1;" parent="1" vertex="1">
          <mxGeometry x="1230" y="3185" width="120" height="60" as="geometry" />
        </mxCell>
        <mxCell id="dURvWSEMzT_Up1eG5Lx8-36" style="edgeStyle=orthogonalEdgeStyle;rounded=0;orthogonalLoop=1;jettySize=auto;html=1;exitX=1;exitY=0.5;exitDx=0;exitDy=0;" edge="1" parent="1" source="jqGfhg1RxOjhNtgh079G-73">
          <mxGeometry relative="1" as="geometry">
            <mxPoint x="1420" y="3364.4285714285716" as="targetPoint" />
          </mxGeometry>
        </mxCell>
        <mxCell id="jqGfhg1RxOjhNtgh079G-73" value="go to pool" style="rounded=1;whiteSpace=wrap;html=1;" parent="1" vertex="1">
          <mxGeometry x="1230" y="3335" width="120" height="60" as="geometry" />
        </mxCell>
        <mxCell id="jqGfhg1RxOjhNtgh079G-96" style="edgeStyle=orthogonalEdgeStyle;rounded=0;orthogonalLoop=1;jettySize=auto;html=1;exitX=0.5;exitY=1;exitDx=0;exitDy=0;entryX=0.5;entryY=0;entryDx=0;entryDy=0;" parent="1" source="jqGfhg1RxOjhNtgh079G-86" target="jqGfhg1RxOjhNtgh079G-89" edge="1">
          <mxGeometry relative="1" as="geometry" />
        </mxCell>
        <mxCell id="dURvWSEMzT_Up1eG5Lx8-41" style="edgeStyle=orthogonalEdgeStyle;rounded=0;orthogonalLoop=1;jettySize=auto;html=1;exitX=1;exitY=0.5;exitDx=0;exitDy=0;entryX=0.5;entryY=0;entryDx=0;entryDy=0;" edge="1" parent="1" source="jqGfhg1RxOjhNtgh079G-86" target="jqGfhg1RxOjhNtgh079G-99">
          <mxGeometry relative="1" as="geometry" />
        </mxCell>
        <mxCell id="jqGfhg1RxOjhNtgh079G-86" value="u want to do spa" style="rhombus;whiteSpace=wrap;html=1;" parent="1" vertex="1">
          <mxGeometry x="1470" y="2820" width="180" height="100" as="geometry" />
        </mxCell>
        <mxCell id="jqGfhg1RxOjhNtgh079G-94" style="edgeStyle=orthogonalEdgeStyle;rounded=0;orthogonalLoop=1;jettySize=auto;html=1;exitX=1;exitY=0.5;exitDx=0;exitDy=0;entryX=0;entryY=0.5;entryDx=0;entryDy=0;" parent="1" source="jqGfhg1RxOjhNtgh079G-163" target="jqGfhg1RxOjhNtgh079G-92" edge="1">
          <mxGeometry relative="1" as="geometry" />
        </mxCell>
        <mxCell id="jqGfhg1RxOjhNtgh079G-97" style="edgeStyle=orthogonalEdgeStyle;rounded=0;orthogonalLoop=1;jettySize=auto;html=1;exitX=0.5;exitY=1;exitDx=0;exitDy=0;entryX=0.5;entryY=0;entryDx=0;entryDy=0;" parent="1" source="jqGfhg1RxOjhNtgh079G-89" target="jqGfhg1RxOjhNtgh079G-91" edge="1">
          <mxGeometry relative="1" as="geometry" />
        </mxCell>
        <mxCell id="jqGfhg1RxOjhNtgh079G-89" value="do sauna" style="rhombus;whiteSpace=wrap;html=1;" parent="1" vertex="1">
          <mxGeometry x="1475" y="2975" width="170" height="100" as="geometry" />
        </mxCell>
        <mxCell id="jqGfhg1RxOjhNtgh079G-95" style="edgeStyle=orthogonalEdgeStyle;rounded=0;orthogonalLoop=1;jettySize=auto;html=1;exitX=1;exitY=0.5;exitDx=0;exitDy=0;entryX=0;entryY=0.5;entryDx=0;entryDy=0;" parent="1" source="jqGfhg1RxOjhNtgh079G-91" target="jqGfhg1RxOjhNtgh079G-93" edge="1">
          <mxGeometry relative="1" as="geometry" />
        </mxCell>
        <mxCell id="dURvWSEMzT_Up1eG5Lx8-42" style="edgeStyle=orthogonalEdgeStyle;rounded=0;orthogonalLoop=1;jettySize=auto;html=1;exitX=0.5;exitY=1;exitDx=0;exitDy=0;entryX=0;entryY=0.5;entryDx=0;entryDy=0;" edge="1" parent="1" source="jqGfhg1RxOjhNtgh079G-91" target="jqGfhg1RxOjhNtgh079G-99">
          <mxGeometry relative="1" as="geometry" />
        </mxCell>
        <mxCell id="jqGfhg1RxOjhNtgh079G-91" value="do massage" style="rhombus;whiteSpace=wrap;html=1;" parent="1" vertex="1">
          <mxGeometry x="1485" y="3140" width="150" height="80" as="geometry" />
        </mxCell>
        <mxCell id="dURvWSEMzT_Up1eG5Lx8-44" style="edgeStyle=orthogonalEdgeStyle;rounded=0;orthogonalLoop=1;jettySize=auto;html=1;exitX=1;exitY=0.5;exitDx=0;exitDy=0;" edge="1" parent="1" source="jqGfhg1RxOjhNtgh079G-92">
          <mxGeometry relative="1" as="geometry">
            <mxPoint x="2270" y="3080" as="targetPoint" />
            <Array as="points">
              <mxPoint x="1830" y="3020" />
              <mxPoint x="2271" y="3020" />
              <mxPoint x="2271" y="3080" />
            </Array>
          </mxGeometry>
        </mxCell>
        <mxCell id="jqGfhg1RxOjhNtgh079G-92" value="go to sauna" style="rounded=1;whiteSpace=wrap;html=1;" parent="1" vertex="1">
          <mxGeometry x="1710" y="2995" width="120" height="60" as="geometry" />
        </mxCell>
        <mxCell id="dURvWSEMzT_Up1eG5Lx8-43" style="edgeStyle=orthogonalEdgeStyle;rounded=0;orthogonalLoop=1;jettySize=auto;html=1;exitX=1;exitY=0.5;exitDx=0;exitDy=0;entryX=0.5;entryY=0;entryDx=0;entryDy=0;" edge="1" parent="1" source="jqGfhg1RxOjhNtgh079G-93" target="jqGfhg1RxOjhNtgh079G-99">
          <mxGeometry relative="1" as="geometry">
            <Array as="points">
              <mxPoint x="1880" y="3180" />
              <mxPoint x="1880" y="3020" />
              <mxPoint x="2270" y="3020" />
            </Array>
          </mxGeometry>
        </mxCell>
        <mxCell id="jqGfhg1RxOjhNtgh079G-93" value="go do massage" style="rounded=1;whiteSpace=wrap;html=1;" parent="1" vertex="1">
          <mxGeometry x="1710" y="3150" width="120" height="60" as="geometry" />
        </mxCell>
        <mxCell id="jqGfhg1RxOjhNtgh079G-109" style="edgeStyle=orthogonalEdgeStyle;rounded=0;orthogonalLoop=1;jettySize=auto;html=1;exitX=0.5;exitY=1;exitDx=0;exitDy=0;entryX=0.5;entryY=0;entryDx=0;entryDy=0;" parent="1" source="jqGfhg1RxOjhNtgh079G-99" target="jqGfhg1RxOjhNtgh079G-101" edge="1">
          <mxGeometry relative="1" as="geometry" />
        </mxCell>
        <mxCell id="jqGfhg1RxOjhNtgh079G-99" value="go get shower" style="rounded=1;whiteSpace=wrap;html=1;" parent="1" vertex="1">
          <mxGeometry x="2190" y="3080" width="160" height="100" as="geometry" />
        </mxCell>
        <mxCell id="jqGfhg1RxOjhNtgh079G-110" style="edgeStyle=orthogonalEdgeStyle;rounded=0;orthogonalLoop=1;jettySize=auto;html=1;exitX=0.5;exitY=1;exitDx=0;exitDy=0;entryX=0.5;entryY=0;entryDx=0;entryDy=0;" parent="1" source="jqGfhg1RxOjhNtgh079G-101" target="jqGfhg1RxOjhNtgh079G-102" edge="1">
          <mxGeometry relative="1" as="geometry" />
        </mxCell>
        <mxCell id="jqGfhg1RxOjhNtgh079G-101" value="change clothes" style="rounded=1;whiteSpace=wrap;html=1;" parent="1" vertex="1">
          <mxGeometry x="2195" y="3290" width="150" height="80" as="geometry" />
        </mxCell>
        <mxCell id="jqGfhg1RxOjhNtgh079G-102" value="End" style="ellipse;whiteSpace=wrap;html=1;" parent="1" vertex="1">
          <mxGeometry x="2210" y="3490" width="120" height="80" as="geometry" />
        </mxCell>
        <mxCell id="jqGfhg1RxOjhNtgh079G-111" value="false" style="text;html=1;align=center;verticalAlign=middle;resizable=0;points=[];autosize=1;strokeColor=none;fillColor=none;" parent="1" vertex="1">
          <mxGeometry x="500" y="340" width="50" height="30" as="geometry" />
        </mxCell>
        <mxCell id="jqGfhg1RxOjhNtgh079G-112" value="true" style="text;html=1;align=center;verticalAlign=middle;resizable=0;points=[];autosize=1;strokeColor=none;fillColor=none;" parent="1" vertex="1">
          <mxGeometry x="430" y="448" width="40" height="30" as="geometry" />
        </mxCell>
        <mxCell id="jqGfhg1RxOjhNtgh079G-113" value="true" style="text;html=1;align=center;verticalAlign=middle;resizable=0;points=[];autosize=1;strokeColor=none;fillColor=none;" parent="1" vertex="1">
          <mxGeometry x="425" y="660" width="40" height="30" as="geometry" />
        </mxCell>
        <mxCell id="jqGfhg1RxOjhNtgh079G-115" value="false" style="text;html=1;align=center;verticalAlign=middle;resizable=0;points=[];autosize=1;strokeColor=none;fillColor=none;" parent="1" vertex="1">
          <mxGeometry x="495" y="560" width="50" height="30" as="geometry" />
        </mxCell>
        <mxCell id="jqGfhg1RxOjhNtgh079G-116" value="true" style="text;html=1;align=center;verticalAlign=middle;resizable=0;points=[];autosize=1;strokeColor=none;fillColor=none;" parent="1" vertex="1">
          <mxGeometry x="430" y="880" width="40" height="30" as="geometry" />
        </mxCell>
        <mxCell id="jqGfhg1RxOjhNtgh079G-117" value="true" style="text;html=1;align=center;verticalAlign=middle;resizable=0;points=[];autosize=1;strokeColor=none;fillColor=none;" parent="1" vertex="1">
          <mxGeometry x="690" y="870" width="40" height="30" as="geometry" />
        </mxCell>
        <mxCell id="jqGfhg1RxOjhNtgh079G-122" value="false" style="text;html=1;align=center;verticalAlign=middle;resizable=0;points=[];autosize=1;strokeColor=none;fillColor=none;" parent="1" vertex="1">
          <mxGeometry x="760" y="770" width="50" height="30" as="geometry" />
        </mxCell>
        <mxCell id="jqGfhg1RxOjhNtgh079G-123" value="false" style="text;html=1;align=center;verticalAlign=middle;resizable=0;points=[];autosize=1;strokeColor=none;fillColor=none;" parent="1" vertex="1">
          <mxGeometry x="505" y="770" width="50" height="30" as="geometry" />
        </mxCell>
        <mxCell id="jqGfhg1RxOjhNtgh079G-131" style="edgeStyle=orthogonalEdgeStyle;rounded=0;orthogonalLoop=1;jettySize=auto;html=1;exitX=0.5;exitY=1;exitDx=0;exitDy=0;entryX=0.5;entryY=0;entryDx=0;entryDy=0;" parent="1" source="jqGfhg1RxOjhNtgh079G-124" target="jqGfhg1RxOjhNtgh079G-125" edge="1">
          <mxGeometry relative="1" as="geometry" />
        </mxCell>
        <mxCell id="jqGfhg1RxOjhNtgh079G-124" value="find nearest parking" style="rounded=1;whiteSpace=wrap;html=1;" parent="1" vertex="1">
          <mxGeometry x="930" y="980" width="120" height="60" as="geometry" />
        </mxCell>
        <mxCell id="jqGfhg1RxOjhNtgh079G-132" style="edgeStyle=orthogonalEdgeStyle;rounded=0;orthogonalLoop=1;jettySize=auto;html=1;exitX=0.5;exitY=1;exitDx=0;exitDy=0;" parent="1" source="jqGfhg1RxOjhNtgh079G-125" edge="1">
          <mxGeometry relative="1" as="geometry">
            <mxPoint x="990" y="1400" as="targetPoint" />
          </mxGeometry>
        </mxCell>
        <mxCell id="jqGfhg1RxOjhNtgh079G-125" value="while walking to the&amp;nbsp;&lt;div&gt;gym, consider changing it :(&lt;/div&gt;" style="rounded=1;whiteSpace=wrap;html=1;" parent="1" vertex="1">
          <mxGeometry x="930" y="1210" width="120" height="60" as="geometry" />
        </mxCell>
        <mxCell id="jqGfhg1RxOjhNtgh079G-133" value="true" style="text;html=1;align=center;verticalAlign=middle;resizable=0;points=[];autosize=1;strokeColor=none;fillColor=none;" parent="1" vertex="1">
          <mxGeometry x="690" y="1080" width="40" height="30" as="geometry" />
        </mxCell>
        <mxCell id="jqGfhg1RxOjhNtgh079G-134" value="true" style="text;html=1;align=center;verticalAlign=middle;resizable=0;points=[];autosize=1;strokeColor=none;fillColor=none;" parent="1" vertex="1">
          <mxGeometry x="1295" y="1080" width="40" height="30" as="geometry" />
        </mxCell>
        <mxCell id="jqGfhg1RxOjhNtgh079G-135" value="false" style="text;html=1;align=center;verticalAlign=middle;resizable=0;points=[];autosize=1;strokeColor=none;fillColor=none;" parent="1" vertex="1">
          <mxGeometry x="760" y="1010" width="50" height="30" as="geometry" />
        </mxCell>
        <mxCell id="jqGfhg1RxOjhNtgh079G-136" value="false" style="text;html=1;align=center;verticalAlign=middle;resizable=0;points=[];autosize=1;strokeColor=none;fillColor=none;" parent="1" vertex="1">
          <mxGeometry x="1170" y="1010" width="50" height="30" as="geometry" />
        </mxCell>
        <mxCell id="jqGfhg1RxOjhNtgh079G-137" value="true" style="text;html=1;align=center;verticalAlign=middle;resizable=0;points=[];autosize=1;strokeColor=none;fillColor=none;" parent="1" vertex="1">
          <mxGeometry x="430" y="1590" width="40" height="30" as="geometry" />
        </mxCell>
        <mxCell id="jqGfhg1RxOjhNtgh079G-138" value="false" style="text;html=1;align=center;verticalAlign=middle;resizable=0;points=[];autosize=1;strokeColor=none;fillColor=none;" parent="1" vertex="1">
          <mxGeometry x="287.5" y="1520" width="50" height="30" as="geometry" />
        </mxCell>
        <mxCell id="jqGfhg1RxOjhNtgh079G-141" value="false" style="text;html=1;align=center;verticalAlign=middle;resizable=0;points=[];autosize=1;strokeColor=none;fillColor=none;" parent="1" vertex="1">
          <mxGeometry x="740" y="2880" width="50" height="30" as="geometry" />
        </mxCell>
        <mxCell id="jqGfhg1RxOjhNtgh079G-142" value="false" style="text;html=1;align=center;verticalAlign=middle;resizable=0;points=[];autosize=1;strokeColor=none;fillColor=none;" parent="1" vertex="1">
          <mxGeometry x="305" y="1890" width="50" height="30" as="geometry" />
        </mxCell>
        <mxCell id="jqGfhg1RxOjhNtgh079G-143" value="true" style="text;html=1;align=center;verticalAlign=middle;resizable=0;points=[];autosize=1;strokeColor=none;fillColor=none;" parent="1" vertex="1">
          <mxGeometry x="460" y="1990" width="40" height="30" as="geometry" />
        </mxCell>
        <mxCell id="jqGfhg1RxOjhNtgh079G-144" value="true" style="text;html=1;align=center;verticalAlign=middle;resizable=0;points=[];autosize=1;strokeColor=none;fillColor=none;" parent="1" vertex="1">
          <mxGeometry x="450" y="2280" width="40" height="30" as="geometry" />
        </mxCell>
        <mxCell id="jqGfhg1RxOjhNtgh079G-145" value="false" style="text;html=1;align=center;verticalAlign=middle;resizable=0;points=[];autosize=1;strokeColor=none;fillColor=none;" parent="1" vertex="1">
          <mxGeometry x="310" y="2185" width="50" height="30" as="geometry" />
        </mxCell>
        <mxCell id="jqGfhg1RxOjhNtgh079G-146" value="true" style="text;html=1;align=center;verticalAlign=middle;resizable=0;points=[];autosize=1;strokeColor=none;fillColor=none;" parent="1" vertex="1">
          <mxGeometry x="430" y="2635" width="40" height="30" as="geometry" />
        </mxCell>
        <mxCell id="jqGfhg1RxOjhNtgh079G-147" value="true" style="text;html=1;align=center;verticalAlign=middle;resizable=0;points=[];autosize=1;strokeColor=none;fillColor=none;" parent="1" vertex="1">
          <mxGeometry x="610" y="2920" width="40" height="30" as="geometry" />
        </mxCell>
        <mxCell id="jqGfhg1RxOjhNtgh079G-148" value="false" style="text;html=1;align=center;verticalAlign=middle;resizable=0;points=[];autosize=1;strokeColor=none;fillColor=none;" parent="1" vertex="1">
          <mxGeometry x="535" y="2590" width="50" height="30" as="geometry" />
        </mxCell>
        <mxCell id="jqGfhg1RxOjhNtgh079G-149" value="false" style="text;html=1;align=center;verticalAlign=middle;resizable=0;points=[];autosize=1;strokeColor=none;fillColor=none;" parent="1" vertex="1">
          <mxGeometry x="1080" y="2880" width="50" height="30" as="geometry" />
        </mxCell>
        <mxCell id="jqGfhg1RxOjhNtgh079G-150" value="true" style="text;html=1;align=center;verticalAlign=middle;resizable=0;points=[];autosize=1;strokeColor=none;fillColor=none;" parent="1" vertex="1">
          <mxGeometry x="970" y="2920" width="40" height="30" as="geometry" />
        </mxCell>
        <mxCell id="jqGfhg1RxOjhNtgh079G-151" value="true" style="text;html=1;align=center;verticalAlign=middle;resizable=0;points=[];autosize=1;strokeColor=none;fillColor=none;" parent="1" vertex="1">
          <mxGeometry x="1100" y="3080" width="40" height="30" as="geometry" />
        </mxCell>
        <mxCell id="jqGfhg1RxOjhNtgh079G-152" value="true" style="text;html=1;align=center;verticalAlign=middle;resizable=0;points=[];autosize=1;strokeColor=none;fillColor=none;" parent="1" vertex="1">
          <mxGeometry x="1090" y="3370" width="40" height="30" as="geometry" />
        </mxCell>
        <mxCell id="jqGfhg1RxOjhNtgh079G-153" value="true" style="text;html=1;align=center;verticalAlign=middle;resizable=0;points=[];autosize=1;strokeColor=none;fillColor=none;" parent="1" vertex="1">
          <mxGeometry x="1090" y="3220" width="40" height="30" as="geometry" />
        </mxCell>
        <mxCell id="jqGfhg1RxOjhNtgh079G-156" value="false" style="text;html=1;align=center;verticalAlign=middle;resizable=0;points=[];autosize=1;strokeColor=none;fillColor=none;" parent="1" vertex="1">
          <mxGeometry x="965" y="3260" width="50" height="30" as="geometry" />
        </mxCell>
        <mxCell id="jqGfhg1RxOjhNtgh079G-157" value="false" style="text;html=1;align=center;verticalAlign=middle;resizable=0;points=[];autosize=1;strokeColor=none;fillColor=none;" parent="1" vertex="1">
          <mxGeometry x="950" y="3400" width="50" height="30" as="geometry" />
        </mxCell>
        <mxCell id="jqGfhg1RxOjhNtgh079G-159" value="true" style="text;html=1;align=center;verticalAlign=middle;resizable=0;points=[];autosize=1;strokeColor=none;fillColor=none;" parent="1" vertex="1">
          <mxGeometry x="1560" y="2910" width="40" height="30" as="geometry" />
        </mxCell>
        <mxCell id="jqGfhg1RxOjhNtgh079G-161" value="false" style="text;html=1;align=center;verticalAlign=middle;resizable=0;points=[];autosize=1;strokeColor=none;fillColor=none;" parent="1" vertex="1">
          <mxGeometry x="1560" y="3070" width="50" height="30" as="geometry" />
        </mxCell>
        <mxCell id="jqGfhg1RxOjhNtgh079G-162" value="false" style="text;html=1;align=center;verticalAlign=middle;resizable=0;points=[];autosize=1;strokeColor=none;fillColor=none;" parent="1" vertex="1">
          <mxGeometry x="1565" y="3210" width="50" height="30" as="geometry" />
        </mxCell>
        <mxCell id="jqGfhg1RxOjhNtgh079G-164" value="true" style="text;html=1;align=center;verticalAlign=middle;resizable=0;points=[];autosize=1;strokeColor=none;fillColor=none;" parent="1" vertex="1">
          <mxGeometry x="1630" y="3180" width="40" height="30" as="geometry" />
        </mxCell>
        <mxCell id="jqGfhg1RxOjhNtgh079G-165" value="false" style="text;html=1;align=center;verticalAlign=middle;resizable=0;points=[];autosize=1;strokeColor=none;fillColor=none;" parent="1" vertex="1">
          <mxGeometry x="960" y="3110" width="50" height="30" as="geometry" />
        </mxCell>
        <mxCell id="dURvWSEMzT_Up1eG5Lx8-7" style="edgeStyle=orthogonalEdgeStyle;rounded=0;orthogonalLoop=1;jettySize=auto;html=1;exitX=1;exitY=0.5;exitDx=0;exitDy=0;entryX=1;entryY=0.5;entryDx=0;entryDy=0;" edge="1" parent="1" source="dURvWSEMzT_Up1eG5Lx8-4" target="jqGfhg1RxOjhNtgh079G-7">
          <mxGeometry relative="1" as="geometry" />
        </mxCell>
        <mxCell id="dURvWSEMzT_Up1eG5Lx8-4" value="u arrived by car" style="rhombus;whiteSpace=wrap;html=1;" vertex="1" parent="1">
          <mxGeometry x="1210" y="720" width="160" height="160" as="geometry" />
        </mxCell>
        <mxCell id="dURvWSEMzT_Up1eG5Lx8-5" value="true" style="text;html=1;align=center;verticalAlign=middle;resizable=0;points=[];autosize=1;strokeColor=none;fillColor=none;" vertex="1" parent="1">
          <mxGeometry x="1290" y="880" width="40" height="30" as="geometry" />
        </mxCell>
        <mxCell id="dURvWSEMzT_Up1eG5Lx8-6" value="false" style="text;html=1;align=center;verticalAlign=middle;resizable=0;points=[];autosize=1;strokeColor=none;fillColor=none;" vertex="1" parent="1">
          <mxGeometry x="1360" y="740" width="50" height="30" as="geometry" />
        </mxCell>
        <mxCell id="dURvWSEMzT_Up1eG5Lx8-14" style="edgeStyle=orthogonalEdgeStyle;rounded=0;orthogonalLoop=1;jettySize=auto;html=1;exitX=0.5;exitY=1;exitDx=0;exitDy=0;entryX=0.5;entryY=0;entryDx=0;entryDy=0;" edge="1" parent="1" source="dURvWSEMzT_Up1eG5Lx8-11" target="jqGfhg1RxOjhNtgh079G-28">
          <mxGeometry relative="1" as="geometry" />
        </mxCell>
        <mxCell id="dURvWSEMzT_Up1eG5Lx8-11" value="wait for partner" style="rounded=0;whiteSpace=wrap;html=1;" vertex="1" parent="1">
          <mxGeometry x="375" y="2050" width="120" height="60" as="geometry" />
        </mxCell>
        <mxCell id="dURvWSEMzT_Up1eG5Lx8-21" style="edgeStyle=orthogonalEdgeStyle;rounded=0;orthogonalLoop=1;jettySize=auto;html=1;exitX=0.5;exitY=1;exitDx=0;exitDy=0;entryX=0;entryY=0.5;entryDx=0;entryDy=0;" edge="1" parent="1" source="dURvWSEMzT_Up1eG5Lx8-17" target="jqGfhg1RxOjhNtgh079G-19">
          <mxGeometry relative="1" as="geometry" />
        </mxCell>
        <mxCell id="dURvWSEMzT_Up1eG5Lx8-17" value="train by your plan" style="rounded=0;whiteSpace=wrap;html=1;" vertex="1" parent="1">
          <mxGeometry x="205" y="2340" width="120" height="60" as="geometry" />
        </mxCell>
        <mxCell id="dURvWSEMzT_Up1eG5Lx8-22" style="edgeStyle=orthogonalEdgeStyle;rounded=0;orthogonalLoop=1;jettySize=auto;html=1;exitX=0.5;exitY=1;exitDx=0;exitDy=0;entryX=0.5;entryY=0;entryDx=0;entryDy=0;" edge="1" parent="1" source="dURvWSEMzT_Up1eG5Lx8-18" target="jqGfhg1RxOjhNtgh079G-19">
          <mxGeometry relative="1" as="geometry" />
        </mxCell>
        <mxCell id="dURvWSEMzT_Up1eG5Lx8-18" value="let trainer make plan" style="rounded=0;whiteSpace=wrap;html=1;" vertex="1" parent="1">
          <mxGeometry x="375" y="2340" width="120" height="60" as="geometry" />
        </mxCell>
        <mxCell id="dURvWSEMzT_Up1eG5Lx8-38" value="false" style="text;html=1;align=center;verticalAlign=middle;resizable=0;points=[];autosize=1;strokeColor=none;fillColor=none;" vertex="1" parent="1">
          <mxGeometry x="1645" y="2840" width="50" height="30" as="geometry" />
        </mxCell>
        <mxCell id="dURvWSEMzT_Up1eG5Lx8-45" value="" style="edgeStyle=orthogonalEdgeStyle;rounded=0;orthogonalLoop=1;jettySize=auto;html=1;exitX=1;exitY=0.5;exitDx=0;exitDy=0;entryX=0;entryY=0.5;entryDx=0;entryDy=0;" edge="1" parent="1" source="jqGfhg1RxOjhNtgh079G-89" target="jqGfhg1RxOjhNtgh079G-163">
          <mxGeometry relative="1" as="geometry">
            <mxPoint x="1645" y="3025" as="sourcePoint" />
            <mxPoint x="1710" y="3025" as="targetPoint" />
          </mxGeometry>
        </mxCell>
        <mxCell id="jqGfhg1RxOjhNtgh079G-163" value="true" style="text;html=1;align=center;verticalAlign=middle;resizable=0;points=[];autosize=1;strokeColor=none;fillColor=none;" parent="1" vertex="1">
          <mxGeometry x="1635" y="3020" width="40" height="30" as="geometry" />
        </mxCell>
      </root>
    </mxGraphModel>
  </diagram>
</mxfile>
